HIERARCHY
ROOT Hips
{
  OFFSET 2.26061 22.2878 23.7974
  CHANNELS 6 Xposition Yposition Zposition Zrotation Xrotation Yrotation
  JOINT LeftUpLeg
  {
    OFFSET 8.64259 1.95398 -2.38835
    CHANNELS 3 Zrotation Xrotation Yrotation
    JOINT LeftLeg
    {
      OFFSET 43.7702 0 0
      CHANNELS 3 Zrotation Xrotation Yrotation
      JOINT LeftFoot
      {
        OFFSET 40.6238 0 0
        CHANNELS 3 Zrotation Xrotation Yrotation
        JOINT LeftToeBase
        {
          OFFSET 12.7242 0 0
          CHANNELS 3 Zrotation Xrotation Yrotation
          End Site
          {
            OFFSET 0 0 0
          }
        }
      }
    }
  }
  JOINT RightUpLeg
  {
    OFFSET -8.2249 1.95398 -2.59336
    CHANNELS 3 Zrotation Xrotation Yrotation
    JOINT RightLeg
    {
      OFFSET 43.5653 0 0
      CHANNELS 3 Zrotation Xrotation Yrotation
      JOINT RightFoot
      {
        OFFSET 40.6238 0 0
        CHANNELS 3 Zrotation Xrotation Yrotation
        JOINT RightToeBase
        {
          OFFSET 12.7242 0 0
          CHANNELS 3 Zrotation Xrotation Yrotation
          End Site
          {
            OFFSET 0 0 0
          }
        }
      }
    }
  }
  JOINT Spine
  {
    OFFSET 0.165834 0.87714 6.61349
    CHANNELS 3 Zrotation Xrotation Yrotation
    JOINT Spine1
    {
      OFFSET 7.38963 1.71661e-005 0
      CHANNELS 3 Zrotation Xrotation Yrotation
      JOINT Spine2
      {
        OFFSET 11.9445 1.14441e-005 0
        CHANNELS 3 Zrotation Xrotation Yrotation
        JOINT Spine3
        {
          OFFSET 14.7254 4.19617e-005 0
          CHANNELS 3 Zrotation Xrotation Yrotation
          JOINT Spine4
          {
            OFFSET 10.9679 0 0
            CHANNELS 3 Zrotation Xrotation Yrotation
            JOINT RightShoulder
            {
              OFFSET 2.46616 -1.6653 3.69651
              CHANNELS 3 Zrotation Xrotation Yrotation
              JOINT RightArm
              {
                OFFSET 13.0012 0 0
                CHANNELS 3 Zrotation Xrotation Yrotation
                JOINT RightForeArm
                {
                  OFFSET 28.7848 1.52588e-005 0
                  CHANNELS 3 Zrotation Xrotation Yrotation
                  JOINT RightHand
                  {
                    OFFSET 26.5688 1.52588e-005 0
                    CHANNELS 3 Zrotation Xrotation Yrotation
                    End Site
                    {
                      OFFSET 0 0 0
                    }
                  }
                }
              }
            }
            JOINT LeftShoulder
            {
              OFFSET 2.38034 -1.29275 -3.7523
              CHANNELS 3 Zrotation Xrotation Yrotation
              JOINT LeftArm
              {
                OFFSET 16.3182 6.10351e-005 0
                CHANNELS 3 Zrotation Xrotation Yrotation
                JOINT LeftForeArm
                {
                  OFFSET 27.0901 0 0
                  CHANNELS 3 Zrotation Xrotation Yrotation
                  JOINT LeftHand
                  {
                    OFFSET 24.5451 1.52588e-005 0
                    CHANNELS 3 Zrotation Xrotation Yrotation
                    End Site
                    {
                      OFFSET 0 0 0
                    }
                  }
                }
              }
            }
            JOINT Neck
            {
              OFFSET 5.0226 -0.0266342 0
              CHANNELS 3 Zrotation Xrotation Yrotation
              JOINT Head
              {
                OFFSET 6.69363 2.86102e-005 0
                CHANNELS 3 Zrotation Xrotation Yrotation
                End Site
                {
                  OFFSET 0 0 0
                }
              }
            }
          }
        }
      }
    }
  }
}
MOTION
Frames:	10
Frame Time:	0.0416667
-7.03791 97.5402 -80.1175 -78.8491 -84.7926 -78.0491 -172.12 5.59003 92.6019 -12.8453 8.24927 1.26922 64.1187 3.7374 0.278309 31.1819 1.67793 3.19018 173.712 4.67139 88.7107 -11.6593 -8.96394 -2.97211 64.9318 -2.96115 -1.6382 30.1837 0.230859 -3.08142 0.000774935 6.75415 -89.9206 13.3655 0.0396978 0.153974 1.69456 0.0467281 0.152064 -20.8405 -0.00813641 0.158879 -0.827877 -0.00813655 0.158871 92.2988 -52.6659 -96.7982 25.1008 -7.81288 1.33148 -10.2993 -30.5421 -42.4473 0.14909 -0.572833 4.44582 -105.045 -55.3529 59.0163 -16.0015 16.9366 -0.166553 0.16297 13.5898 -28.1883 13.9483 1.00877 3.28506 3.59243 1.39078 4.6309 4.98694 0.538609 -2.08158 
-7.02389 97.5515 -80.1054 -78.6653 -84.6778 -77.6658 -171.801 5.79967 92.9297 -13.105 8.97774 1.01977 64.1099 3.69921 0.584642 31.5885 2.01625 3.20438 173.737 4.54198 88.8709 -11.3555 -9.08723 -2.89099 64.7958 -2.95843 -1.64374 30.0542 0.240703 -3.32167 0.00724338 6.75388 -89.9526 13.3661 0.0367943 0.0901604 1.69514 0.0412859 0.0884229 -20.84 0.00852344 0.0972116 -0.827347 0.00853263 0.0972233 92.1687 -52.7239 -96.9818 24.887 -7.91158 1.26276 -9.62146 -30.2167 -41.8388 -0.191881 -0.577146 4.05901 -105.1 -55.458 58.9842 -16.0434 16.7717 0.0512802 0.481479 13.6628 -28.6102 13.6114 1.02214 3.54205 3.69889 1.56806 3.50539 5.17446 1.00087 -0.435078 
-6.96909 97.5651 -80.0652 -80.827 -84.7178 -79.5129 -171.506 5.85816 93.2944 -13.5057 9.07643 0.882451 64.2664 3.6208 0.661623 31.8597 2.18737 4.11592 173.741 4.0239 89.0735 -10.7818 -9.34254 -2.7849 64.6926 -3.00646 -1.68667 29.8977 0.264961 -3.82999 0.0166799 6.79351 -89.9777 13.2869 0.0439306 0.0391122 1.61591 0.0456043 0.037133 -20.9193 0.0301435 0.0505035 -0.9066 0.0301412 0.0505066 92.2898 -52.6729 -96.8106 25.0679 -7.88733 1.09035 -9.51095 -30.1544 -42.2444 -0.737348 -0.620568 5.14304 -105.061 -55.3204 58.9815 -15.8923 17.0506 -0.021832 0.232763 13.444 -28.5997 13.8259 0.995276 3.24756 3.60576 1.56428 4.06579 5.10356 0.848928 -1.32668 
-6.97408 97.5553 -80.0548 -82.933 -84.5901 -81.4204 -171.244 5.66077 93.5468 -13.481 9.61117 0.734075 64.4028 3.84237 1.52665 31.7769 2.10764 4.27224 173.81 3.96694 89.2327 -11.0729 -9.51899 -2.75523 64.791 -3.07888 -1.73061 29.7075 0.282339 -4.19213 0.0358147 6.82281 -89.9908 13.2282 0.0755543 0.00894833 1.5573 0.0758667 0.00560098 -20.9779 0.0693632 0.0312392 -0.965226 0.0693674 0.0312343 92.4135 -52.8579 -96.5928 24.8555 -8.0891 0.918341 -8.84359 -29.6673 -42.3504 -0.983652 -0.628266 5.54965 -104.825 -55.1244 59.2237 -15.9481 17.2276 -0.0225402 -0.00443924 12.6698 -29.0141 13.5226 1.07808 3.99158 3.78075 1.63713 3.90673 4.7362 0.938848 -1.3614 
-7.08917 97.5426 -80.007 -80.3347 -84.4587 -78.8326 -171.175 5.85116 93.6472 -13.4037 9.80056 0.669031 64.2265 3.78378 2.02709 32.1759 2.51595 3.01736 173.963 4.45982 89.3592 -11.601 -9.4251 -2.78548 65.1093 -3.21693 -1.8056 29.4485 0.282104 -4.24724 0.0459289 6.79987 -89.9723 13.2741 0.104531 0.0423842 1.60318 0.106296 0.0377399 -20.932 0.0869564 0.0718412 -0.919358 0.0869593 0.0718464 92.4465 -53.0016 -96.5187 24.9946 -8.09083 1.07584 -9.61845 -29.9588 -42.8452 -0.989654 -0.639135 5.60509 -104.55 -54.8346 59.4809 -16.2052 17.2531 -0.0108519 0.0651774 12.3561 -29.4278 13.2392 1.2198 5.16666 3.85988 1.63569 3.31784 4.6651 1.07579 -0.652794 
-7.28657 97.5311 -80.0789 -81.866 -84.5486 -80.4573 -171.172 5.71779 93.7447 -13.3981 9.71707 0.750899 64.3896 3.99257 2.2381 31.9951 2.43068 1.88254 174.053 4.8284 89.4141 -12.6382 -9.20538 -2.8228 65.3856 -3.3234 -1.85868 29.8517 0.30473 -4.55412 0.0251234 6.81905 -89.948 13.2357 0.0749899 0.0946959 1.56479 0.0790859 0.0913004 -20.9703 0.0430549 0.112855 -0.957696 0.0430595 0.112847 92.34 -53.081 -96.6622 25.2009 -7.95405 1.24779 -10.0339 -30.1294 -42.7685 -0.94147 -0.635751 5.29434 -104.27 -54.6957 59.8067 -16.3118 17.1991 0.118091 0.594322 12.9656 -29.7955 12.6402 1.24939 5.78101 3.78011 1.68905 3.36972 4.73484 1.12062 -0.679447 
-7.59534 97.4861 -80.2636 -87.5535 -84.5566 -86.2052 -170.923 5.1861 94.0277 -13.2331 10.0696 0.675492 64.5027 4.29577 2.3782 31.812 2.30066 1.56144 174.313 5.2333 89.6142 -14.4083 -8.86727 -2.97481 66.1295 -3.59842 -1.99238 29.3982 0.338518 -5.22034 0.0249934 6.8792 -89.9146 13.1154 0.0907922 0.159791 1.44446 0.0977353 0.15563 -21.0906 0.0385657 0.17969 -1.07797 0.0385695 0.179684 92.3522 -53.1465 -96.6328 25.512 -8.04231 1.43794 -9.46225 -29.5071 -42.5139 -1.24851 -0.639319 5.1791 -104.17 -54.555 59.8879 -16.2218 17.2741 0.477903 1.24721 13.5549 -30.5636 11.8381 1.25825 6.41537 3.54641 1.66207 2.96787 5.06417 1.17057 -0.505119 
-7.9712 97.4509 -80.3582 -90.1406 -84.6756 -88.7277 -170.833 5.09358 94.3641 -13.3212 10.4098 0.771511 64.4291 4.41724 2.84627 32.1714 2.62962 0.845117 174.641 5.80756 89.9744 -16.0648 -8.30965 -3.03142 66.6198 -3.79269 -2.08389 29.318 0.37387 -5.81117 0.00830979 6.91141 -89.8811 13.0509 0.0737376 0.228719 1.37993 0.0837329 0.225244 -21.1551 0.00158806 0.240306 -1.14241 0.00157933 0.240297 92.6186 -53.2867 -96.2134 25.7629 -8.49606 1.65227 -8.54374 -27.8975 -43.2458 -1.7203 -0.652438 5.72793 -103.77 -54.1353 60.2702 -16.3451 17.2844 0.583427 1.16664 13.196 -30.6154 11.8132 1.10031 5.17498 3.55108 1.72465 2.32338 5.08252 1.36421 -0.00685831 
-8.30651 97.3862 -80.4297 -93.0231 -84.5418 -91.2542 -171.099 5.07559 94.6955 -13.7828 10.466 1.34927 64.2275 4.36943 3.45975 33.1622 3.40559 1.22635 175.021 6.28119 90.5471 -17.5828 -8.04853 -2.96668 66.9156 -3.97303 -2.179 29.5883 0.417295 -6.57726 0.0152975 6.95041 -89.8771 12.9729 0.089369 0.234839 1.30193 0.0996129 0.230669 -21.2331 0.0146644 0.250846 -1.22041 0.0146505 0.250829 92.8737 -53.1414 -95.8595 26.4012 -8.77247 1.86905 -7.3842 -27.171 -42.2497 -3.97755 -0.776058 5.52274 -103.05 -53.4833 61.0073 -16.6801 17.6294 0.670401 1.9359 13.4604 -32.1408 10.6994 1.06151 5.65983 3.71238 1.7925 1.80565 4.97305 1.53007 0.341623 
-8.90793 97.3363 -80.4837 -95.7371 -84.9582 -93.4264 -171.198 5.64654 95.467 -15.0312 9.83381 1.89835 64.473 4.26209 1.92342 34.1267 4.14628 2.50604 175.379 6.82786 91.341 -19.2762 -7.38905 -2.6889 67.0425 -4.05741 -2.22494 30.9687 0.436273 -7.22353 0.00962399 6.99735 -89.8702 12.879 0.0814071 0.249778 1.20803 0.0923291 0.245949 -21.3269 0.00257684 0.262703 -1.31429 0.00257938 0.262696 93.4941 -53.1727 -94.9324 26.8799 -9.33083 1.90572 -5.38796 -25.2074 -41.6056 -7.08388 -0.928084 5.15424 -103.233 -52.5795 60.4026 -16.6562 17.2008 1.0646 3.66491 13.8788 -34.5812 8.59775 1.02863 7.23542 4.01934 1.55608 0.805254 4.66023 1.46012 0.618574 
